<svg id="Layer_1" data-name="Layer 1" xmlns="http://www.w3.org/2000/svg" viewBox="0 0 320 240"><defs><style>.cls-1{fill:#664483;}.cls-2{fill:#988fc5;}.cls-3{fill:#28262c;}.cls-4{fill:#d0c0df;}.cls-5{fill:#b9d9d9;}.cls-6{fill:#28334a;}.cls-7{fill:none;}.cls-8{fill:#7a9e9f;}</style></defs><rect class="cls-1" x="-33.22" y="-19.44" width="377.78" height="278.67"/><polygon class="cls-2" points="117.89 77.84 130.89 70.28 130.92 58.65 119.28 65.41 107.86 72.05 117.89 77.84"/><polygon class="cls-3" points="97.86 69.28 91.14 65.4 91.11 77.06 92.61 77.92 97.71 74.95 102.68 72.07 97.86 69.28"/><polygon class="cls-4" points="129.63 56.38 116.81 48.98 92.44 63.15 105.26 70.55 129.63 56.38"/><polygon class="cls-5" points="105.26 70.55 129.63 56.38 129.63 56.38 105.26 70.55 105.26 70.55"/><polygon class="cls-5" points="92.44 63.15 92.44 63.15 105.26 70.55 105.26 70.55 92.44 63.15"/><rect class="cls-5" x="105.26" y="70.55" transform="translate(-19.06 95.09) rotate(-45)"/><polygon class="cls-2" points="182.76 84.06 184.11 83.27 184.15 71.63 172.74 78.27 177.11 80.79 182.76 84.06"/><polygon class="cls-3" points="149.08 67.61 133.54 58.64 133.51 70.29 157.47 84.13 162.1 81.43 167.54 78.27 149.08 67.61"/><polygon class="cls-4" points="182.86 69.37 147.56 48.99 134.84 56.39 151.04 65.74 170.14 76.76 182.86 69.37"/><polygon class="cls-5" points="170.14 76.76 182.86 69.37 182.86 69.37 170.14 76.76 170.14 76.76"/><polygon class="cls-5" points="134.84 56.39 151.04 65.74 134.84 56.39 134.84 56.39"/><polygon class="cls-2" points="135.86 105.96 140.48 108.63 141.83 107.84 141.86 96.21 141.71 96.3 130.45 102.84 135.86 105.96"/><polygon class="cls-3" points="91.26 83.22 91.22 94.87 115.18 108.7 125.26 102.84 104.77 91.02 91.26 83.22"/><polygon class="cls-4" points="103.97 74.33 100.86 76.14 92.56 80.96 106.81 89.19 127.85 101.34 138.55 95.12 140.57 93.94 117.89 80.85 117.89 80.85 114.82 79.08 105.28 73.57 103.97 74.33 103.97 74.33"/><polygon class="cls-5" points="103.97 74.33 105.28 73.57 105.28 73.57 103.97 74.33 103.97 74.33"/><polygon class="cls-5" points="117.89 80.85 114.82 79.08 117.89 80.85 117.89 80.85"/><polygon class="cls-5" points="103.97 74.33 100.86 76.14 103.97 74.33 103.97 74.33"/><polygon class="cls-5" points="103.97 74.33 103.97 74.33 105.28 73.57 105.28 73.57 103.97 74.33"/><polygon class="cls-5" points="127.85 101.34 138.55 95.12 127.85 101.34 127.85 101.34"/><polygon class="cls-5" points="92.56 80.96 106.81 89.19 92.56 80.96 92.56 80.96"/><polygon class="cls-2" points="75.62 102.42 76.97 101.64 77 90 76.29 90.41 65.59 96.63 75.62 102.42"/><polygon class="cls-3" points="53.45 92.63 48.87 89.98 48.84 101.64 50.32 102.49 53.31 100.76 60.4 96.64 53.45 92.63"/><polygon class="cls-4" points="73.36 89.11 75.71 87.74 62.89 80.34 50.18 87.73 55.44 90.77 62.99 95.13 73.36 89.11"/><polygon class="cls-5" points="62.99 95.13 73.36 89.11 62.99 95.13 62.99 95.13"/><polygon class="cls-5" points="50.18 87.73 55.44 90.77 50.18 87.73 50.18 87.73"/><polygon class="cls-2" points="99.42 120.87 86.87 128.16 86.84 139.8 99.55 132.42 99.57 124.67 99.58 120.78 99.42 120.87"/><polygon class="cls-3" points="60.61 114.51 48.97 107.79 48.94 119.44 84.23 139.81 84.27 128.16 60.61 114.51"/><polygon class="cls-6" points="84.23 139.81 84.23 139.81 84.27 128.16 84.27 128.16 84.23 139.81"/><polygon class="cls-4" points="96.19 119.74 98.29 118.52 75.63 105.43 75.63 105.43 69.58 101.94 63 98.14 58.38 100.82 50.28 105.53 61.92 112.25 85.57 125.91 96.19 119.74"/><polygon class="cls-5" points="75.63 105.43 69.58 101.94 75.63 105.43 75.63 105.43"/><polygon class="cls-5" points="63 98.14 58.38 100.82 63 98.14 63 98.14"/><polygon class="cls-5" points="85.57 125.91 96.19 119.74 85.57 125.91 85.57 125.91"/><polygon class="cls-5" points="50.28 105.53 61.92 112.25 50.28 105.53 50.28 105.53"/><polygon class="cls-2" points="117.57 139.8 141.93 125.65 141.96 114.01 117.61 128.16 117.57 139.8"/><polygon class="cls-3" points="106.41 123.2 102.19 120.76 102.17 124.2 102.15 132.42 114.97 139.81 115 128.16 106.41 123.2"/><polygon class="cls-6" points="102.15 132.42 102.15 132.42 102.17 124.2 102.15 132.42"/><polygon class="cls-6" points="114.97 139.81 114.97 139.81 115 128.16 115 128.16 114.97 139.81"/><polygon class="cls-4" points="122.88 107.24 103.49 118.51 107.72 120.95 116.3 125.91 140.22 112.01 140.67 111.75 140.49 111.64 140.49 111.64 133.75 107.75 127.86 104.35 122.88 107.24"/><polygon class="cls-5" points="140.49 111.64 133.75 107.75 140.49 111.64 140.49 111.64"/><polygon class="cls-5" points="127.86 104.35 122.88 107.24 127.86 104.35 127.86 104.35"/><polygon class="cls-5" points="116.3 125.91 140.22 112.01 116.3 125.91 116.3 125.91"/><polygon class="cls-5" points="107.72 120.95 103.49 118.51 103.49 118.51 107.72 120.95"/><polygon class="cls-2" points="171.52 104.56 171.51 108.46 184.21 101.07 184.25 89.44 178.25 92.92 171.54 96.82 171.52 104.56"/><polygon class="cls-3" points="157.33 90.12 156.12 89.42 156.09 101.07 168.9 108.47 168.91 105.03 168.93 96.82 157.33 90.12"/><polygon class="cls-6" points="168.91 105.03 168.93 96.82 168.93 96.82 168.91 105.03"/><polygon class="cls-4" points="177.04 90.61 182.96 87.17 182.77 87.06 182.77 87.06 177.82 84.2 170.14 79.77 164.3 83.17 157.42 87.17 158.63 87.87 170.24 94.57 177.04 90.61"/><polygon class="cls-5" points="182.77 87.06 177.82 84.2 182.77 87.06 182.77 87.06"/><polygon class="cls-5" points="170.14 79.77 164.3 83.17 170.14 79.77 170.14 79.77"/><polygon class="cls-5" points="170.24 94.57 177.04 90.61 170.24 94.57 170.24 94.57"/><polygon class="cls-5" points="157.42 87.17 158.63 87.87 157.42 87.17 157.42 87.17"/><path d="M185.55,85.66l-.19-.1,1.35-.79,0-14.65v-1.5l-1.31-.76L147.56,46l-14,8.14h0l-1.31.76L131,54.14h0L116.81,46l-27,15.67-1.3.75v1.5l0,14.66,1.51.87-.05,0-1.3.75v1.5l0,14.66,24,13.84-10.39,6h0l-1.31.76-1.3-.75h0L78.22,103.92l1.35-.78,0-14.65V87l-1.3-.75-15.42-8.9-15.31,8.9-1.3.75v1.5l0,14.66,1.5.86,0,0-1.3.75v1.51l0,14.65,37.9,21.88v-1.5h0v1.5l1.3.75,1.3-.75,14-8.15L115,142.82l1.31.75,1.29-.75,27-15.67,0-14.66V111l-1.31-.75-.19-.11,1.35-.78,0-14.66v-1.5l-1.3-.75-22.68-13.1,11.7-6.8,22.68,13.1-.05,0-1.3.76v1.5l0,14.65,15.41,8.9,1.31.76,1.3-.76,15.31-8.9.05-14.65v-1.5Zm-1.34,15.41-12.7,7.39v-3.9l0-7.74,6.71-3.9,6-3.48Zm-15.3,4v3.44l-12.82-7.4,0-11.65,1.21.7,11.6,6.7h0Zm-30.36-9.91-10.7,6.22h0l-21-12.15L92.56,81h0l8.3-4.82L104,74.33l1.31-.76h0l9.54,5.51,3.07,1.77,22.68,13.09Zm3.28,12.72-1.35.79L135.86,106l-5.41-3.12,11.26-6.55.15-.08Zm-1.16,3.91-.45.26-23.92,13.9h0l-8.58-5-4.23-2.44h0l19.39-11.27,5-2.89h0l5.89,3.4,6.73,3.89Zm1.26,13.9L117.57,139.8l0-11.64L142,114Zm-27,14.17h0l-12.82-7.4h0l0-8.21v-3.45l4.23,2.45,8.59,5h0Zm-15.42-7.4L86.84,139.8l0-11.64,12.55-7.29.16-.09v3.89ZM50.28,105.53l8.1-4.71L63,98.14h0l6.58,3.8,6,3.49,22.66,13.09-2.1,1.22-10.62,6.17h0L61.92,112.25l-11.64-6.72Zm-.1-17.8,12.71-7.39,12.82,7.4-2.35,1.37L63,95.13h0l-7.55-4.36-5.26-3ZM77,101.64l-1.35.78-10-5.79,10.7-6.22L77,90ZM48.87,90l4.59,2.64,6.94,4-7.09,4.12-3,1.73-1.48-.85Zm42.39-6.77L104.77,91l20.49,11.83-10.08,5.85-24-13.83Zm1.18-20.07L116.81,49l12.82,7.4L105.26,70.55h0l-12.82-7.4Zm90.42,6.22h0l-12.72,7.39h0l-19.1-11-16.2-9.35h0L147.56,49Zm1.25,13.9-1.35.78-5.65-3.26-4.37-2.52,11.41-6.64Zm-93-17.87,6.72,3.88,4.82,2.79-5,2.88-5.11,3-1.49-.86Zm16.72,6.65,11.42-6.64,11.64-6.76,0,11.63-13,7.56Zm25.68-13.41,15.54,9,18.46,10.66-5.44,3.16-4.63,2.7-24-13.84ZM164.3,83.17l5.84-3.4h0l7.68,4.44,5,2.85.19.11L177,90.61l-6.8,4h0l-11.61-6.7-1.21-.7ZM48.94,119.44l0-11.65,11.64,6.72,23.66,13.65h0l0,11.66h0Z"/><polygon class="cls-7" points="186.6 166.71 187.9 167.46 189.21 166.7 189.21 166.7 194.84 163.43 186.4 158.56 186.44 143.91 185.15 143.16 186.45 142.4 186.45 142.04 165.23 154.37 186.6 166.71 186.6 166.71"/><polygon class="cls-2" points="162.63 152.87 217.91 120.75 217.93 113 217.94 109.11 152.6 147.08 162.63 152.87"/><polygon class="cls-3" points="137.72 141.5 135.88 140.44 135.85 152.09 137.33 152.94 140.32 151.21 147.41 147.09 137.72 141.5"/><polygon class="cls-4" points="213.71 108.56 216.66 106.85 203.84 99.45 137.18 138.18 140.28 139.97 150 145.58 213.71 108.56"/><polygon class="cls-5" points="150 145.58 150 145.58 213.71 108.56 150 145.58"/><polygon class="cls-5" points="137.18 138.18 140.28 139.97 137.18 138.18 137.18 138.18"/><polygon class="cls-2" points="258.43 137.22 258.41 141.11 271.12 133.72 271.15 122.09 266.66 124.7 258.45 129.47 258.43 137.22"/><polygon class="cls-3" points="235.4 117.67 220.55 109.09 220.54 112.54 220.51 120.75 255.81 141.12 255.82 137.68 255.84 129.47 235.4 117.67"/><polygon class="cls-6" points="220.51 120.75 220.51 120.75 220.54 112.54 220.51 120.75"/><polygon class="cls-6" points="255.82 137.68 255.84 129.47 255.84 129.47 255.82 137.68"/><polygon class="cls-4" points="257.14 127.22 265.52 122.35 269.87 119.82 234.57 99.45 221.85 106.84 236.7 115.41 257.14 127.22"/><polygon class="cls-5" points="257.14 127.22 265.52 122.35 257.14 127.22 257.14 127.22"/><polygon class="cls-5" points="236.7 115.41 221.85 106.84 221.85 106.84 236.7 115.41"/><polygon class="cls-2" points="222.73 161.85 224.08 161.06 224.11 149.43 218.36 152.77 212.7 156.06 222.73 161.85"/><polygon class="cls-3" points="189.04 145.41 189.01 157.06 197.43 161.92 207.5 156.06 194.05 148.29 189.04 145.41"/><polygon class="cls-4" points="216.41 150.89 222.82 147.16 203.07 135.76 190.35 143.15 196.36 146.62 210.1 154.56 216.41 150.89"/><polygon class="cls-5" points="210.1 154.56 216.41 150.89 210.1 154.56 210.1 154.56"/><polygon class="cls-5" points="190.35 143.15 196.36 146.62 190.35 143.15 190.35 143.15"/><polygon class="cls-2" points="204.59 186.36 204.58 190.25 224.18 178.86 224.21 167.23 223.63 167.56 204.61 178.62 204.59 186.36"/><polygon class="cls-3" points="193.42 173.66 189.19 171.22 189.18 174.66 189.16 182.87 201.98 190.27 201.99 186.82 202.01 178.62 193.42 173.66"/><polygon class="cls-6" points="201.99 186.82 202.01 178.62 202.01 178.62 201.99 186.82"/><polygon class="cls-4" points="205.55 160.21 190.5 168.96 194.72 171.4 203.31 176.36 220.14 166.58 222.92 164.96 222.73 164.86 222.73 164.86 212.32 158.84 210.1 157.56 205.55 160.21"/><polygon class="cls-5" points="222.73 164.86 212.32 158.84 222.73 164.86 222.73 164.86"/><polygon class="cls-5" points="210.1 157.56 210.1 157.56 205.55 160.21 210.1 157.56"/><polygon class="cls-5" points="203.31 176.36 220.14 166.58 203.31 176.36 203.31 176.36"/><polygon class="cls-5" points="194.72 171.4 190.5 168.96 190.5 168.96 194.72 171.4"/><polygon class="cls-2" points="186.43 171.32 173.88 178.62 173.86 186.36 173.85 190.25 186.56 182.87 186.58 175.12 186.59 171.23 186.43 171.32"/><polygon class="cls-8" points="186.58 175.12 186.59 171.23 186.59 171.23 186.58 175.12"/><polygon class="cls-3" points="147.62 164.96 135.98 158.24 135.95 169.89 171.24 190.27 171.25 186.82 171.28 178.62 147.62 164.96"/><polygon class="cls-6" points="171.25 186.82 171.28 178.62 171.28 178.62 171.25 186.82"/><polygon class="cls-4" points="183.2 170.19 185.3 168.97 162.63 155.88 162.63 155.88 156.59 152.39 150 148.59 145.38 151.28 137.28 155.98 148.92 162.7 172.58 176.36 183.2 170.19"/><polygon class="cls-5" points="162.63 155.88 156.59 152.39 162.63 155.88 162.63 155.88"/><polygon class="cls-5" points="150 148.59 145.38 151.28 150 148.59 150 148.59"/><polygon class="cls-5" points="172.58 176.36 183.2 170.19 172.58 176.36 172.58 176.36"/><polygon class="cls-5" points="137.28 155.98 148.92 162.7 137.28 155.98 137.28 155.98"/><path d="M272.46,118.32,234.57,96.44l-14,8.14h0l-1.31.76-1.29-.75-14.13-8.15-69.25,40.24-1.29.76v1.5l0,14.65,1.5.86-.06,0-1.29.76v1.5h0l0,14.65,37.9,21.88v-1.5h0v1.5l1.3.75,1.3-.75,14-8.15L202,193.27l1.3.75,1.3-.75,22.21-12.9,0-14.66v-1.5l-1.3-.75-.19-.11,1.35-.79,0-14.65v-1.5l-1.3-.76-22.36-12.9-15.31,8.9-1.3.75v1.5l0,14.66,8.44,4.87-5.63,3.27h0l-1.32.76-1.29-.75h0l-21.37-12.34L186.45,142l1-.57L219.21,123l36.59,21.13,1.31.75,1.3-.75,15.31-8.91,0-14.65v-1.5Zm-1.34,15.4-12.71,7.39v-3.89l0-7.75,8.21-4.77,4.49-2.61Zm-15.3,4v3.44l-35.29-20.37h0l0-8.21v-3.45l14.85,8.58,20.44,11.8h0Zm-37.91-16.93-55.28,32.12-10-5.79,65.34-38V113Zm-27.56,22.4,12.72-7.39,19.75,11.4-6.41,3.73-6.31,3.67h0l-13.74-7.94-6-3.47Zm33.73,17.91-1.35.79-10-5.79,5.66-3.29,5.75-3.34Zm-35-15.65,5,2.89,13.46,7.76-10.08,5.86L189,157.06Zm16.5,14.8,4.56-2.65h0l2.21,1.28,10.41,6,.19.1-2.78,1.62-16.83,9.78h0l-8.59-5L190.49,169h0Zm18.63,18.65-19.6,11.39v-3.89l0-7.74,19-11.06.58-.33Zm-22.19,8v3.45l-12.82-7.4,0-8.21v-3.44l4.23,2.44,8.59,5h0Zm-15.43-3.95-12.71,7.38v-3.89l0-7.74,12.55-7.29.16-.1h0v3.89Zm-3.36-12.68-10.62,6.17h0L148.92,162.7,137.28,156h0l8.1-4.7,4.63-2.69h0l6.57,3.8,6,3.49L185.3,169Zm86.67-50.37-4.35,2.53-8.38,4.87h0L236.7,115.41l-14.85-8.57h0l12.72-7.39Zm-53.22-13-2.94,1.71-63.71,37h0L140.28,140l-3.1-1.79,66.66-38.73Zm-80.77,33.59,1.84,1.06,9.69,5.59-7.09,4.12-3,1.73-1.48-.85Zm-1.23,30.2,0-13.15h0l0,13.15,27.55,15.91Zm36.59,19.63L136,169.89l0-11.65L147.62,165l23.66,13.66h0l0,8.2Z"/></svg>