<?xml version="1.0" encoding="utf-8"?>
<!-- Generator: Adobe Illustrator 24.1.1, SVG Export Plug-In . SVG Version: 6.00 Build 0)  -->
<svg version="1.1" id="Layer_1" xmlns="http://www.w3.org/2000/svg" xmlns:xlink="http://www.w3.org/1999/xlink" x="0px" y="0px"
	 viewBox="0 0 24 24" style="enable-background:new 0 0 24 24;" xml:space="preserve">
<style type="text/css">
	.st0{fill:#E6E6E6;}
</style>
<path class="st0" d="M6.2,8.7c0.4-0.4,0.9-0.8,1.4-1.1c2.9-1.6,6.6-0.7,8.4,2.1l-2.2,2.2c-0.6-1.5-2.2-2.3-3.8-1.9
	c-0.6,0.1-1.2,0.4-1.6,0.9l-4.3,4.3c-1.3,1.3-1.3,3.4,0,4.7s3.4,1.3,4.7,0l1.3-1.3c1.2,0.5,2.5,0.7,3.8,0.6L11,22.1
	c-2.5,2.5-6.6,2.5-9.1,0s-2.5-6.6,0-9.1C1.9,13,6.2,8.7,6.2,8.7z M13,1.9l-2.9,2.9c1.3-0.1,2.6,0.1,3.8,0.6l1.3-1.3
	c1.3-1.3,3.4-1.3,4.7,0s1.3,3.4,0,4.7l-4.3,4.3c-1.3,1.3-3.4,1.3-4.7,0c-0.3-0.3-0.6-0.7-0.7-1.1l-2.2,2.2c0.2,0.4,0.5,0.7,0.8,1
	c0.8,0.8,1.8,1.4,3,1.7c1.5,0.4,3.2,0.2,4.6-0.6c0.5-0.3,1-0.6,1.4-1.1l4.3-4.3c2.5-2.5,2.5-6.6,0-9.1C19.6-0.6,15.5-0.6,13,1.9z"/>
</svg>
