<svg xmlns="http://www.w3.org/2000/svg" viewBox="0 0 800 800"><defs><style>.cls-1{fill:#a5a4a4;}.cls-2{fill:#171717;}.cls-3{fill:#b9d9d9;}.cls-4{fill:#686868;}.cls-5{fill:#28334a;}.cls-6{fill:none;}.cls-7{fill:#7a9e9f;}</style></defs><g id="dark"><polygon class="cls-1" points="270.63 270.48 310.56 247.27 310.67 211.53 274.91 232.3 239.82 252.7 270.63 270.48"/><polygon class="cls-2" points="209.09 244.19 188.46 232.28 188.36 268.08 192.96 270.73 208.66 261.61 223.91 252.75 209.09 244.19"/><polygon class="cls-1" points="306.7 204.57 267.33 181.84 192.46 225.35 231.83 248.09 306.7 204.57"/><polygon class="cls-3" points="231.83 248.09 306.7 204.57 306.7 204.57 231.83 248.09 231.83 248.09"/><polygon class="cls-3" points="192.46 225.35 192.46 225.35 231.83 248.09 231.83 248.09 192.46 225.35"/><rect class="cls-3" x="231.83" y="248.08" transform="translate(-107.52 236.59) rotate(-45)"/><polygon class="cls-4" points="469.93 289.58 474.08 287.17 474.18 251.42 439.13 271.79 452.56 279.55 469.93 289.58"/><polygon class="cls-2" points="366.45 239.07 318.71 211.51 318.61 247.3 392.22 289.8 406.45 281.52 423.17 271.81 366.45 239.07"/><polygon class="cls-1" points="470.22 244.47 361.79 181.87 322.71 204.58 372.47 233.3 431.14 267.18 470.22 244.47"/><polygon class="cls-3" points="431.14 267.18 470.22 244.47 470.22 244.47 431.14 267.18 431.14 267.18"/><polygon class="cls-3" points="322.71 204.58 372.47 233.3 322.71 204.58 322.71 204.58"/><polygon class="cls-4" points="325.83 356.87 340.04 365.06 344.18 362.66 344.28 326.91 343.82 327.18 309.23 347.28 325.83 356.87"/><polygon class="cls-2" points="188.82 287 188.72 322.79 262.32 365.29 293.27 347.3 230.33 310.96 188.82 287"/><polygon class="cls-1" points="227.89 259.69 218.31 265.26 192.82 280.07 236.59 305.34 301.24 342.67 334.12 323.56 340.32 319.96 270.64 279.73 270.64 279.73 261.21 274.28 231.9 257.36 227.89 259.7 227.89 259.69"/><polygon class="cls-3" points="227.89 259.7 231.9 257.36 231.9 257.36 227.89 259.69 227.89 259.7"/><polygon class="cls-3" points="270.64 279.73 261.21 274.28 270.64 279.73 270.64 279.73"/><polygon class="cls-3" points="227.89 259.69 218.31 265.26 227.89 259.69 227.89 259.69"/><polygon class="cls-3" points="227.89 259.69 227.89 259.69 231.9 257.36 231.9 257.36 227.89 259.69"/><polygon class="cls-3" points="301.24 342.67 334.12 323.56 301.24 342.67 301.24 342.67"/><polygon class="cls-3" points="192.82 280.07 236.59 305.34 192.82 280.07 192.82 280.07"/><polygon class="cls-4" points="140.79 346 144.92 343.59 145.03 307.84 142.85 309.11 109.98 328.21 140.79 346"/><polygon class="cls-2" points="72.69 315.92 58.62 307.79 58.52 343.59 63.07 346.22 72.25 340.88 94.02 328.23 72.69 315.92"/><polygon class="cls-1" points="133.83 305.1 141.06 300.89 101.69 278.16 62.62 300.87 78.79 310.2 101.99 323.6 133.83 305.1"/><polygon class="cls-3" points="101.99 323.6 133.83 305.1 101.99 323.6 101.99 323.6"/><polygon class="cls-3" points="62.62 300.87 78.79 310.2 62.62 300.87 62.62 300.87"/><polygon class="cls-4" points="213.89 402.68 175.35 425.08 175.25 460.83 214.29 438.14 214.36 414.35 214.39 402.39 213.89 402.68"/><polygon class="cls-2" points="94.69 383.13 58.93 362.48 58.83 398.27 167.25 460.87 167.35 425.08 94.69 383.13"/><polygon class="cls-5" points="167.25 460.87 167.25 460.87 167.35 425.08 167.35 425.08 167.25 460.87"/><polygon class="cls-1" points="203.97 399.2 210.43 395.44 140.8 355.24 140.8 355.24 122.22 344.51 102.01 332.84 87.81 341.09 62.93 355.55 98.69 376.2 171.35 418.15 203.97 399.2"/><polygon class="cls-3" points="140.8 355.24 122.22 344.51 140.8 355.24 140.8 355.24"/><polygon class="cls-3" points="102.01 332.84 87.81 341.09 102.01 332.84 102.01 332.84"/><polygon class="cls-3" points="171.35 418.15 203.97 399.2 171.35 418.15 171.35 418.15"/><polygon class="cls-3" points="62.93 355.55 98.69 376.2 62.93 355.55 62.93 355.55"/><polygon class="cls-4" points="269.66 460.83 344.49 417.34 344.59 381.6 269.76 425.08 269.66 460.83"/><polygon class="cls-2" points="235.38 409.85 222.39 402.35 222.36 412.92 222.29 438.14 261.66 460.87 261.76 425.08 235.38 409.85"/><polygon class="cls-5" points="222.29 438.14 222.29 438.14 222.36 412.92 222.29 438.14"/><polygon class="cls-5" points="261.66 460.87 261.66 460.87 261.76 425.08 261.76 425.08 261.66 460.87"/><polygon class="cls-1" points="285.96 360.8 226.39 395.42 239.38 402.92 265.76 418.15 339.25 375.45 340.63 374.64 340.05 374.31 340.05 374.31 319.35 362.36 301.25 351.91 285.96 360.8"/><polygon class="cls-3" points="340.05 374.31 319.35 362.36 340.05 374.31 340.05 374.31"/><polygon class="cls-3" points="301.25 351.91 285.96 360.8 301.25 351.91 301.25 351.91"/><polygon class="cls-3" points="265.76 418.15 339.25 375.45 265.76 418.15 265.76 418.15"/><polygon class="cls-3" points="239.38 402.92 226.39 395.42 226.39 395.42 239.38 402.92"/><polygon class="cls-4" points="435.38 352.57 435.35 364.54 474.38 341.86 474.49 306.11 456.08 316.8 435.45 328.79 435.38 352.57"/><polygon class="cls-2" points="391.8 308.21 388.07 306.06 387.97 341.86 427.35 364.59 427.38 354 427.45 328.79 391.8 308.21"/><polygon class="cls-5" points="427.38 354 427.45 328.79 427.45 328.79 427.38 354"/><polygon class="cls-1" points="452.34 309.73 470.52 299.16 469.95 298.82 469.95 298.82 454.73 290.04 431.15 276.42 413.21 286.85 392.07 299.13 395.8 301.28 431.45 321.87 452.34 309.73"/><polygon class="cls-3" points="469.95 298.82 454.73 290.04 469.95 298.82 469.95 298.82"/><polygon class="cls-3" points="431.15 276.42 413.21 286.85 431.15 276.42 431.15 276.42"/><polygon class="cls-3" points="431.45 321.87 452.34 309.73 431.45 321.87 431.45 321.87"/><polygon class="cls-3" points="392.07 299.13 395.8 301.28 392.07 299.13 392.07 299.13"/><path d="M478.5,294.52l-.58-.33,4.14-2.41.13-45v-4.61l-4-2.31L361.78,172.63l-43.08,25v-.06l-4,2.34-3.93-2.27h0L267.32,172.6l-82.85,48.14-4,2.32,0,4.61-.12,45,4.64,2.68-.16.09-4,2.31v4.62l-.13,45,73.65,42.52-31.92,18.55h0l-4,2.34-4-2.3h0l-65.66-37.9,4.14-2.41.13-45v-4.62l-4-2.31-47.36-27.35L54.63,296.25l-4,2.32,0,4.61-.12,45,4.59,2.65-.16.09-4,2.32v4.61l-.13,45L167.22,470.1l0-4.62h0l0,4.62,4,2.31,4-2.31,43.07-25,43.35,25,4,2.32,4-2.32L352.47,422l.13-45v-4.61l-4-2.32-.58-.33,4.15-2.41.12-45,0-4.61-4-2.32-69.68-40.23,35.95-20.89,69.68,40.23-.15.09-4,2.32v4.61l-.13,45,47.36,27.34,4,2.32,4-2.32,47.05-27.34.13-45v-4.61Zm-4.12,47.34-39,22.68,0-12,.07-23.79,20.63-12,18.41-10.69Zm-47,12.14,0,10.59L388,341.86l.1-35.8,3.73,2.15,35.65,20.58h0Zm-93.27-30.44-32.87,19.11h0l-64.65-37.33-43.77-25.27h0l25.49-14.81,9.58-5.57,4-2.33h0l29.31,16.92,9.43,5.45L340.32,320Zm10.07,39.1-4.14,2.4-14.2-8.19-16.61-9.59,34.59-20.1.46-.27Zm-3.55,12-1.38.81-73.49,42.7h0l-26.38-15.23-13-7.5h0L286,360.8l15.29-8.89h0l18.1,10.45,20.7,11.95Zm3.86,42.7-74.83,43.49.1-35.75,74.83-43.48Zm-82.83,43.53h0l-39.37-22.73h0l.07-25.22,0-10.57,13,7.5,26.38,15.23h0Zm-47.37-22.73-39,22.69.1-35.75,38.54-22.4.5-.29,0,12ZM62.93,355.55l24.88-14.46,14.2-8.25h0l20.21,11.67,18.58,10.73,69.63,40.2L204,399.2l-32.62,18.95h0L98.69,376.2,62.93,355.55Zm-.31-54.68,39.07-22.71,39.37,22.73-7.23,4.21L102,323.6h0l-23.2-13.4-16.17-9.33Zm82.3,42.72L140.79,346,110,328.21l32.87-19.1,2.17-1.27Zm-86.3-35.8,14.07,8.13L94,328.23,72.25,340.88l-9.18,5.34-4.55-2.63ZM188.82,287l41.51,24,62.94,36.34-30.95,18-73.6-42.5Zm3.64-61.65,74.87-43.51,39.38,22.73-74.88,43.51h0l-39.37-22.73Zm277.76,19.12h0l-39.08,22.71h0L372.47,233.3l-49.75-28.72h0l39.07-22.71Zm3.86,42.7-4.15,2.41-17.37-10-13.43-7.76,35.05-20.37ZM188.46,232.28l20.63,11.91,14.82,8.56-15.25,8.86L193,270.73l-4.6-2.65Zm51.36,20.42,35.09-20.4,35.76-20.77-.11,35.74-39.93,23.21Zm78.9-41.19,47.73,27.56,56.71,32.74-16.7,9.71-14.24,8.28-73.61-42.5Zm94.49,75.34,17.94-10.43h0L454.73,290,470,298.82l.57.34-18.18,10.57-20.89,12.14h0L395.8,301.28l-3.73-2.15ZM58.83,398.27l.1-35.79,35.76,20.64,72.66,42h0l-.1,35.79h0Z"/><polygon class="cls-6" points="481.72 543.5 485.69 545.8 489.72 543.46 489.72 543.46 507.01 533.41 481.11 518.45 481.24 473.44 477.27 471.14 481.25 468.82 481.26 467.71 416.06 505.6 481.72 543.5 481.72 543.5"/><polygon class="cls-4" points="408.08 500.99 577.9 402.29 577.97 378.51 578 366.54 377.27 483.2 408.08 500.99"/><polygon class="cls-2" points="331.54 466.04 325.91 462.78 325.81 498.58 330.36 501.21 339.54 495.87 361.31 483.22 331.54 466.04"/><polygon class="cls-1" points="565 364.85 574.04 359.59 534.67 336.86 329.91 455.86 339.41 461.34 369.28 478.59 565 364.85"/><polygon class="cls-3" points="369.28 478.59 369.28 478.59 565 364.85 369.28 478.59"/><polygon class="cls-3" points="329.91 455.86 339.41 461.34 329.91 455.86 329.91 455.86"/><polygon class="cls-4" points="702.36 452.89 702.33 464.85 741.37 442.16 741.47 406.41 727.66 414.44 702.43 429.1 702.36 452.89"/><polygon class="cls-2" points="631.63 392.84 586 366.5 585.98 377.09 585.9 402.29 694.33 464.89 694.36 454.32 694.43 429.1 631.63 392.84"/><polygon class="cls-5" points="585.9 402.29 585.9 402.29 585.98 377.09 585.9 402.29"/><polygon class="cls-5" points="694.36 454.32 694.43 429.1 694.43 429.1 694.36 454.32"/><polygon class="cls-1" points="698.43 422.17 724.16 407.21 737.51 399.46 629.08 336.86 590 359.57 635.63 385.91 698.43 422.17"/><polygon class="cls-3" points="698.43 422.17 724.16 407.21 698.43 422.17 698.43 422.17"/><polygon class="cls-3" points="635.63 385.91 590 359.57 590 359.57 635.63 385.91"/><polygon class="cls-4" points="592.71 528.55 596.85 526.14 596.95 490.39 579.27 500.67 561.9 510.76 592.71 528.55"/><polygon class="cls-2" points="489.23 478.05 489.13 513.84 514.99 528.77 545.94 510.79 504.6 486.92 489.23 478.05"/><polygon class="cls-1" points="573.29 494.89 592.99 483.44 532.3 448.41 493.23 471.12 511.71 481.79 553.91 506.15 573.29 494.89"/><polygon class="cls-3" points="553.91 506.15 573.29 494.89 553.91 506.15 553.91 506.15"/><polygon class="cls-3" points="493.23 471.12 511.71 481.79 493.23 471.12 493.23 471.12"/><polygon class="cls-4" points="536.99 603.85 536.95 615.82 597.15 580.83 597.26 545.08 595.47 546.12 537.05 580.07 536.99 603.85"/><polygon class="cls-2" points="502.67 564.84 489.68 557.34 489.65 567.91 489.58 593.13 528.95 615.86 528.98 605.27 529.05 580.07 502.67 564.84"/><polygon class="cls-5" points="528.98 605.27 529.05 580.07 529.05 580.07 528.98 605.27"/><polygon class="cls-1" points="539.93 523.53 493.68 550.41 506.67 557.91 533.05 573.14 584.76 543.09 593.3 538.13 592.72 537.8 592.72 537.8 560.73 519.33 553.92 515.4 539.93 523.53"/><polygon class="cls-3" points="592.72 537.8 560.73 519.33 592.72 537.8 592.72 537.8"/><polygon class="cls-3" points="553.92 515.4 553.92 515.4 539.93 523.53 553.92 515.4"/><polygon class="cls-3" points="533.05 573.14 584.76 543.09 533.05 573.14 533.05 573.14"/><polygon class="cls-3" points="506.67 557.91 493.68 550.41 493.68 550.41 506.67 557.91"/><polygon class="cls-4" points="481.18 557.67 442.64 580.07 442.57 603.85 442.54 615.82 481.58 593.13 481.65 569.34 481.68 557.38 481.18 557.67"/><polygon class="cls-7" points="481.65 569.34 481.68 557.38 481.68 557.38 481.65 569.34"/><polygon class="cls-2" points="361.98 538.12 326.22 517.47 326.12 553.26 434.54 615.86 434.57 605.27 434.64 580.07 361.98 538.12"/><polygon class="cls-5" points="434.57 605.27 434.64 580.07 434.64 580.07 434.57 605.27"/><polygon class="cls-1" points="471.26 554.19 477.72 550.43 408.09 510.23 408.09 510.23 389.51 499.5 369.3 487.83 355.1 496.08 330.22 510.54 365.98 531.19 438.64 573.14 471.26 554.19"/><polygon class="cls-3" points="408.09 510.23 389.51 499.5 408.09 510.23 408.09 510.23"/><polygon class="cls-3" points="369.3 487.83 355.1 496.08 369.3 487.83 369.3 487.83"/><polygon class="cls-3" points="438.64 573.14 471.26 554.19 438.64 573.14 438.64 573.14"/><polygon class="cls-3" points="330.22 510.54 365.98 531.19 330.22 510.54 330.22 510.54"/><path d="M745.48,394.83,629.07,327.62l-43,25h0L582,355l-4-2.3-43.38-25L321.92,451.24l-4,2.32,0,4.61-.12,45,4.59,2.65-.16.09-4,2.32v4.61h0l-.13,45,116.41,67.21,0-4.62h0l0,4.62,4,2.31,4-2.31,43.07-25,43.35,25,4,2.31,4-2.31,68.21-39.65.13-45v-4.62l-4-2.31-.58-.34,4.14-2.4.13-45,0-4.61-4-2.32-68.67-39.65-47,27.35-4,2.31v4.62l-.13,45,25.9,15-17.29,10.05h0l-4,2.34-4-2.3h0l-65.66-37.9,65.2-37.89,3-1.76,97.62-56.73,112.4,64.89,4,2.32,4-2.32,47.05-27.34.13-45v-4.61Zm-4.11,47.33-39,22.69,0-12,.07-23.79,25.23-14.67,13.81-8Zm-47,12.16,0,10.57L585.9,402.29h0l.07-25.2,0-10.59,45.62,26.34,62.8,36.26h0Zm-116.46-52L408.08,501,377.27,483.2,578,366.54l0,12Zm-84.67,68.83,39.07-22.71,60.69,35-19.7,11.45-19.38,11.26h0l-42.2-24.36-18.48-10.67Zm103.62,55-4.15,2.41-30.8-17.78,17.37-10.1L597,490.4ZM489.23,478.05l15.37,8.87,41.34,23.87-31,18-25.86-14.93Zm50.7,45.48,14-8.13h0l6.81,3.93,32,18.47.58.33-8.54,5-51.71,30h0l-26.38-15.23-13-7.5h0Zm57.23,57.3-60.21,35,0-12,.06-23.78,58.42-34,1.79-1ZM529,605.27l0,10.59-39.37-22.73.07-25.22,0-10.57,13,7.5,26.38,15.23h0Zm-47.4-12.14-39,22.69,0-12,.07-23.78,38.54-22.4.5-.29h0l0,12Zm-10.32-38.94-32.62,18.95h0L366,531.19l-35.75-20.65h0l24.88-14.46,14.2-8.25h0l20.21,11.67,18.58,10.73,69.63,40.2ZM737.51,399.46l-13.35,7.75-25.73,15h0l-62.8-36.26L590,359.57h0l39.07-22.71ZM574,359.59l-9,5.26L369.28,478.59h0l-29.87-17.25-9.5-5.48,204.76-119ZM325.91,462.78l5.63,3.25,29.77,17.19-21.77,12.65-9.18,5.34-4.55-2.63Zm-3.8,92.79h0l46.73,27Zm112.43,60.29-108.42-62.6.1-35.79L362,538.11l72.67,42h0l-.07,25.2Z"/></g></svg>